<svg width="600" height="500" viewBox="0 0 600 500" fill="none" xmlns="http://www.w3.org/2000/svg">
<path d="M19.7346 102.849C19.2502 97.1967 23.5595 92.2739 29.2261 92.0062L446.143 72.3094C451.437 72.0593 456.007 75.9841 456.56 81.256L485.994 362.11C486.534 367.267 483.043 371.982 477.953 372.97L60.9181 453.882C55.0848 455.013 49.5574 450.839 49.05 444.919L19.7346 102.849Z" fill="#FFC5D6" fill-opacity="0.16"/>
<g filter="url(#filter0_d-320482)">
<path d="M68.7477 55.3303C68.8857 49.6807 73.6744 45.2677 79.3165 45.5909L496.072 69.46C501.364 69.7631 505.5 74.1429 505.5 79.4436V361.909C505.5 367.064 501.581 371.374 496.45 371.863L71.2219 412.429C65.2534 412.999 60.1288 408.224 60.2752 402.23L68.7477 55.3303Z" fill="url(#paint0_linear-018785)"/>
</g>
<path d="M124 99.5569C124 96.5873 126.573 94.2722 129.526 94.5847L266.227 109.048C268.684 109.308 270.583 111.324 270.696 113.792L275.761 224.772C275.891 227.62 273.617 230 270.767 230H129C126.239 230 124 227.761 124 225V99.5569Z" fill="white" fill-opacity="0.14"/>
<path d="M436 241.557C436 238.587 433.427 236.272 430.474 236.585L293.773 251.048C291.316 251.308 289.417 253.324 289.304 255.792L284.239 366.772C284.109 369.62 286.383 372 289.233 372H431C433.761 372 436 369.761 436 367V241.557Z" fill="white" fill-opacity="0.14"/>
<path opacity="0.5" d="M88.7442 147.572C88.0657 144.681 90.0417 141.839 92.9881 141.468L229.378 124.318C231.83 124.009 234.139 125.538 234.813 127.916L265.099 234.803C265.876 237.546 264.206 240.382 261.431 241.034L123.414 273.422C120.725 274.053 118.034 272.385 117.403 269.697L88.7442 147.572Z" fill="white" fill-opacity="0.08"/>
<path opacity="0.5" d="M471.256 289.572C471.934 286.681 469.958 283.839 467.012 283.468L330.622 266.318C328.17 266.009 325.861 267.538 325.187 269.916L294.901 376.803C294.124 379.546 295.794 382.382 298.569 383.034L436.586 415.422C439.275 416.053 441.966 414.385 442.597 411.697L471.256 289.572Z" fill="white" fill-opacity="0.08"/>
<rect x="309" y="123" width="133" height="10" rx="3" fill="white" fill-opacity="0.14"/>
<rect width="133" height="10" rx="3" transform="matrix(-1 0 0 1 251 265)" fill="white" fill-opacity="0.14"/>
<rect x="309" y="138" width="94" height="10" rx="3" fill="white" fill-opacity="0.14"/>
<rect width="94" height="10" rx="3" transform="matrix(-1 0 0 1 251 280)" fill="white" fill-opacity="0.14"/>
<rect x="309" y="162" width="138" height="5" rx="2.5" fill="white" fill-opacity="0.14"/>
<rect width="138" height="5" rx="2.5" transform="matrix(-1 0 0 1 251 304)" fill="white" fill-opacity="0.14"/>
<rect x="309" y="173" width="156" height="5" rx="2.5" fill="white" fill-opacity="0.14"/>
<rect width="156" height="5" rx="2.5" transform="matrix(-1 0 0 1 251 315)" fill="white" fill-opacity="0.14"/>
<rect x="309" y="184" width="107" height="5" rx="2.5" fill="white" fill-opacity="0.14"/>
<rect width="107" height="5" rx="2.5" transform="matrix(-1 0 0 1 251 326)" fill="white" fill-opacity="0.14"/>
<rect x="309" y="209" width="40" height="15" rx="3" fill="white" fill-opacity="0.14"/>
<rect width="40" height="15" rx="3" transform="matrix(-1 0 0 1 251 351)" fill="white" fill-opacity="0.14"/>
<g filter="url(#filter1_d-806697)">
<path d="M288.12 257.012C288.054 254.246 290.246 251.952 293.012 251.893L564.142 246.114C567.039 246.052 569.382 248.458 569.243 251.353L559.741 449.474C559.608 452.245 557.245 454.378 554.476 454.227L297.117 440.251C294.511 440.109 292.452 437.987 292.389 435.378L288.12 257.012Z" fill="url(#paint1_linear-370090)"/>
</g>
<path d="M344.699 317.489H316.602C315.165 317.489 314 318.7 314 320.193V321.275C314 322.768 315.165 323.979 316.602 323.979H344.699C346.136 323.979 347.301 322.768 347.301 321.275V320.193C347.301 318.7 346.136 317.489 344.699 317.489Z" fill="#3D427B"/>
<path d="M370.715 317.489H355.106C353.669 317.489 352.504 318.7 352.504 320.193V321.275C352.504 322.768 353.669 323.979 355.106 323.979H370.715C372.152 323.979 373.317 322.768 373.317 321.275V320.193C373.317 318.7 372.152 317.489 370.715 317.489Z" fill="#3D427B"/>
<path d="M386.846 317.489H381.122C379.685 317.489 378.521 318.7 378.521 320.193V321.275C378.521 322.768 379.685 323.979 381.122 323.979H386.846C388.283 323.979 389.447 322.768 389.447 321.275V320.193C389.447 318.7 388.283 317.489 386.846 317.489Z" fill="#3D427B"/>
<path d="M404.537 317.489H397.252C395.815 317.489 394.65 318.7 394.65 320.193V321.275C394.65 322.768 395.815 323.979 397.252 323.979H404.537C405.973 323.979 407.138 322.768 407.138 321.275V320.193C407.138 318.7 405.973 317.489 404.537 317.489Z" fill="#3D427B"/>
<path d="M428.471 317.489H414.943C413.506 317.489 412.341 318.7 412.341 320.193V321.275C412.341 322.768 413.506 323.979 414.943 323.979H428.471C429.908 323.979 431.073 322.768 431.073 321.275V320.193C431.073 318.7 429.908 317.489 428.471 317.489Z" fill="#3D427B"/>
<path d="M331.691 341.589H316.602C315.165 341.589 314 342.799 314 344.293V345.374C314 346.868 315.165 348.078 316.602 348.078H331.691C333.128 348.078 334.293 346.868 334.293 345.374V344.293C334.293 342.799 333.128 341.589 331.691 341.589Z" fill="#3D427B"/>
<path d="M348.862 341.589H342.098C340.661 341.589 339.496 342.799 339.496 344.293V345.374C339.496 346.868 340.661 348.078 342.098 348.078H348.862C350.299 348.078 351.464 346.868 351.464 345.374V344.293C351.464 342.799 350.299 341.589 348.862 341.589Z" fill="#3D427B"/>
<path d="M395.691 341.589H359.268C357.831 341.589 356.667 342.799 356.667 344.293V345.374C356.667 346.868 357.831 348.078 359.268 348.078H395.691C397.128 348.078 398.293 346.868 398.293 345.374V344.293C398.293 342.799 397.128 341.589 395.691 341.589Z" fill="#3D427B"/>
<path d="M412.342 341.589H406.098C404.661 341.589 403.496 342.799 403.496 344.293V345.374C403.496 346.868 404.661 348.078 406.098 348.078H412.342C413.778 348.078 414.943 346.868 414.943 345.374V344.293C414.943 342.799 413.778 341.589 412.342 341.589Z" fill="#3D427B"/>
<path d="M323.366 353.284H316.602C315.165 353.284 314 354.494 314 355.988V357.069C314 358.562 315.165 359.773 316.602 359.773H323.366C324.803 359.773 325.967 358.562 325.967 357.069V355.988C325.967 354.494 324.803 353.284 323.366 353.284Z" fill="#3D427B"/>
<path d="M363.951 353.284H333.772C332.335 353.284 331.17 354.494 331.17 355.988V357.069C331.17 358.562 332.335 359.773 333.772 359.773H363.951C365.388 359.773 366.553 358.562 366.553 357.069V355.988C366.553 354.494 365.388 353.284 363.951 353.284Z" fill="#3D427B"/>
<path d="M351.984 329.692H316.602C315.165 329.692 314 330.902 314 332.396V333.477C314 334.97 315.165 336.181 316.602 336.181H351.984C353.421 336.181 354.585 334.97 354.585 333.477V332.396C354.585 330.902 353.421 329.692 351.984 329.692Z" fill="#3D427B"/>
<path d="M392.049 329.692H362.39C360.953 329.692 359.789 330.902 359.789 332.396V333.477C359.789 334.97 360.953 336.181 362.39 336.181H392.049C393.486 336.181 394.65 334.97 394.65 333.477V332.396C394.65 330.902 393.486 329.692 392.049 329.692Z" fill="#3D427B"/>
<path d="M423.788 329.692H402.455C401.018 329.692 399.854 330.902 399.854 332.396V333.477C399.854 334.97 401.018 336.181 402.455 336.181H423.788C425.225 336.181 426.39 334.97 426.39 333.477V332.396C426.39 330.902 425.225 329.692 423.788 329.692Z" fill="#3D427B"/>
<path d="M446.163 329.692H434.195C432.759 329.692 431.594 330.902 431.594 332.396V333.477C431.594 334.97 432.759 336.181 434.195 336.181H446.163C447.6 336.181 448.764 334.97 448.764 333.477V332.396C448.764 330.902 447.6 329.692 446.163 329.692Z" fill="#3D427B"/>
<path d="M473.74 329.692H456.569C455.133 329.692 453.968 330.902 453.968 332.396V333.477C453.968 334.97 455.133 336.181 456.569 336.181H473.74C475.177 336.181 476.342 334.97 476.342 333.477V332.396C476.342 330.902 475.177 329.692 473.74 329.692Z" fill="#3D427B"/>
<path d="M498.195 329.692H484.147C482.71 329.692 481.545 330.902 481.545 332.396V333.477C481.545 334.97 482.71 336.181 484.147 336.181H498.195C499.632 336.181 500.797 334.97 500.797 333.477V332.396C500.797 330.902 499.632 329.692 498.195 329.692Z" fill="#3D427B"/>
<path d="M324.407 408.078H316.602C315.165 408.078 314 409.289 314 410.782V411.864C314 413.357 315.165 414.568 316.602 414.568H324.407C325.843 414.568 327.008 413.357 327.008 411.864V410.782C327.008 409.289 325.843 408.078 324.407 408.078Z" fill="#3D427B"/>
<path d="M350.943 408.078H334.813C333.376 408.078 332.211 409.289 332.211 410.782V411.864C332.211 413.357 333.376 414.568 334.813 414.568H350.943C352.38 414.568 353.545 413.357 353.545 411.864V410.782C353.545 409.289 352.38 408.078 350.943 408.078Z" fill="#3D427B"/>
<path d="M370.195 408.078H361.35C359.913 408.078 358.748 409.289 358.748 410.782V411.864C358.748 413.357 359.913 414.568 361.35 414.568H370.195C371.632 414.568 372.797 413.357 372.797 411.864V410.782C372.797 409.289 371.632 408.078 370.195 408.078Z" fill="#3D427B"/>
<path d="M401.415 408.078H380.602C379.165 408.078 378 409.289 378 410.782V411.864C378 413.357 379.165 414.568 380.602 414.568H401.415C402.851 414.568 404.016 413.357 404.016 411.864V410.782C404.016 409.289 402.851 408.078 401.415 408.078Z" fill="#3D427B"/>
<path d="M331.691 294H316.602C315.165 294 314 295.211 314 296.704V297.785C314 299.279 315.165 300.489 316.602 300.489H331.691C333.128 300.489 334.293 299.279 334.293 297.785V296.704C334.293 295.211 333.128 294 331.691 294Z" fill="#3D427B"/>
<path d="M366.553 294H342.098C340.661 294 339.496 295.211 339.496 296.704V297.785C339.496 299.279 340.661 300.489 342.098 300.489H366.553C367.99 300.489 369.155 299.279 369.155 297.785V296.704C369.155 295.211 367.99 294 366.553 294Z" fill="#3D427B"/>
<path d="M385.285 294H376.96C375.523 294 374.358 295.211 374.358 296.704V297.785C374.358 299.279 375.523 300.489 376.96 300.489H385.285C386.722 300.489 387.886 299.279 387.886 297.785V296.704C387.886 295.211 386.722 294 385.285 294Z" fill="#3D427B"/>
<path d="M415.984 294H395.691C394.254 294 393.089 295.211 393.089 296.704V297.785C393.089 299.279 394.254 300.489 395.691 300.489H415.984C417.421 300.489 418.585 299.279 418.585 297.785V296.704C418.585 295.211 417.421 294 415.984 294Z" fill="#3D427B"/>
<path d="M451.366 294H426.39C424.953 294 423.789 295.211 423.789 296.704V297.785C423.789 299.279 424.953 300.489 426.39 300.489H451.366C452.803 300.489 453.967 299.279 453.967 297.785V296.704C453.967 295.211 452.803 294 451.366 294Z" fill="#3D427B"/>
<path d="M347.821 305.897H316.602C315.165 305.897 314 307.108 314 308.601V309.682C314 311.176 315.165 312.386 316.602 312.386H347.821C349.258 312.386 350.423 311.176 350.423 309.682V308.601C350.423 307.108 349.258 305.897 347.821 305.897Z" fill="#3D427B"/>
<path d="M393.089 305.897H358.228C356.791 305.897 355.626 307.108 355.626 308.601V309.682C355.626 311.176 356.791 312.386 358.228 312.386H393.089C394.526 312.386 395.691 311.176 395.691 309.682V308.601C395.691 307.108 394.526 305.897 393.089 305.897Z" fill="#3D427B"/>
<path d="M436.277 305.897H403.496C402.059 305.897 400.895 307.108 400.895 308.601V309.682C400.895 311.176 402.059 312.386 403.496 312.386H436.277C437.713 312.386 438.878 311.176 438.878 309.682V308.601C438.878 307.108 437.713 305.897 436.277 305.897Z" fill="#3D427B"/>
<path d="M343.659 396.77H316.602C315.165 396.77 314 397.981 314 399.474V400.555C314 402.049 315.165 403.259 316.602 403.259H343.659C345.095 403.259 346.26 402.049 346.26 400.555V399.474C346.26 397.981 345.095 396.77 343.659 396.77Z" fill="#3D427B"/>
<path d="M357.707 396.77H354.065C352.628 396.77 351.463 397.981 351.463 399.474V400.555C351.463 402.049 352.628 403.259 354.065 403.259H357.707C359.144 403.259 360.309 402.049 360.309 400.555V399.474C360.309 397.981 359.144 396.77 357.707 396.77Z" fill="#3D427B"/>
<path d="M383.203 396.77H368.114C366.677 396.77 365.512 397.981 365.512 399.474V400.555C365.512 402.049 366.677 403.259 368.114 403.259H383.203C384.64 403.259 385.805 402.049 385.805 400.555V399.474C385.805 397.981 384.64 396.77 383.203 396.77Z" fill="#3D427B"/>
<path d="M413.903 396.77H393.61C392.173 396.77 391.008 397.981 391.008 399.474V400.555C391.008 402.049 392.173 403.259 393.61 403.259H413.903C415.339 403.259 416.504 402.049 416.504 400.555V399.474C416.504 397.981 415.339 396.77 413.903 396.77Z" fill="#3D427B"/>
<path d="M426.911 396.77H424.309C422.872 396.77 421.708 397.981 421.708 399.474V400.555C421.708 402.049 422.872 403.259 424.309 403.259H426.911C428.348 403.259 429.512 402.049 429.512 400.555V399.474C429.512 397.981 428.348 396.77 426.911 396.77Z" fill="#3D427B"/>
<path d="M330.13 377.281H316.602C315.165 377.281 314 378.491 314 379.984V381.066C314 382.559 315.165 383.77 316.602 383.77H330.13C331.567 383.77 332.732 382.559 332.732 381.066V379.984C332.732 378.491 331.567 377.281 330.13 377.281Z" fill="#3D427B"/>
<path d="M345.74 377.281H340.537C339.1 377.281 337.935 378.491 337.935 379.984V381.066C337.935 382.559 339.1 383.77 340.537 383.77H345.74C347.177 383.77 348.342 382.559 348.342 381.066V379.984C348.342 378.491 347.177 377.281 345.74 377.281Z" fill="#3D427B"/>
<path d="M336.374 365.078H316.602C315.165 365.078 314 366.289 314 367.782V368.864C314 370.357 315.165 371.568 316.602 371.568H336.374C337.811 371.568 338.976 370.357 338.976 368.864V367.782C338.976 366.289 337.811 365.078 336.374 365.078Z" fill="#3D427B"/>
<path d="M360.829 365.078H346.78C345.343 365.078 344.179 366.289 344.179 367.782V368.864C344.179 370.357 345.343 371.568 346.78 371.568H360.829C362.266 371.568 363.431 370.357 363.431 368.864V367.782C363.431 366.289 362.266 365.078 360.829 365.078Z" fill="#3D427B"/>
<path d="M394.13 365.078H371.236C369.799 365.078 368.634 366.289 368.634 367.782V368.864C368.634 370.357 369.799 371.568 371.236 371.568H394.13C395.567 371.568 396.732 370.357 396.732 368.864V367.782C396.732 366.289 395.567 365.078 394.13 365.078Z" fill="#3D427B"/>
<path d="M421.187 365.078H404.537C403.1 365.078 401.935 366.289 401.935 367.782V368.864C401.935 370.357 403.1 371.568 404.537 371.568H421.187C422.624 371.568 423.789 370.357 423.789 368.864V367.782C423.789 366.289 422.624 365.078 421.187 365.078Z" fill="#3D427B"/>
<path d="M447.204 365.078H431.594C430.157 365.078 428.992 366.289 428.992 367.782V368.864C428.992 370.357 430.157 371.568 431.594 371.568H447.204C448.64 371.568 449.805 370.357 449.805 368.864V367.782C449.805 366.289 448.64 365.078 447.204 365.078Z" fill="#3D427B"/>
<path d="M489.349 365.078H457.609C456.173 365.078 455.008 366.289 455.008 367.782V368.864C455.008 370.357 456.173 371.568 457.609 371.568H489.349C490.786 371.568 491.951 370.357 491.951 368.864V367.782C491.951 366.289 490.786 365.078 489.349 365.078Z" fill="#3D427B"/>
<circle cx="306" cy="271" r="4" fill="#FD1741"/>
<circle cx="318" cy="271" r="4" fill="#FFCD1B"/>
<circle cx="329" cy="271" r="4" fill="#13FB7E"/>
<rect x="413" y="269" width="31" height="5" rx="2.5" fill="#333862"/>
<defs>
<filter id="filter0_d-320482" x="0.271973" y="0.574219" width="565.228" height="486.901" filterUnits="userSpaceOnUse" color-interpolation-filters="sRGB">
<feFlood flood-opacity="0" result="BackgroundImageFix"/>
<feColorMatrix in="SourceAlpha" type="matrix" values="0 0 0 0 0 0 0 0 0 0 0 0 0 0 0 0 0 0 127 0"/>
<feOffset dy="15"/>
<feGaussianBlur stdDeviation="30"/>
<feColorMatrix type="matrix" values="0 0 0 0 0.9375 0 0 0 0 0.152344 0 0 0 0 0.387891 0 0 0 0.5 0"/>
<feBlend mode="normal" in2="BackgroundImageFix" result="effect1_dropShadow"/>
<feBlend mode="normal" in="SourceGraphic" in2="effect1_dropShadow" result="shape"/>
</filter>
<filter id="filter1_d-806697" x="258.119" y="231.113" width="341.131" height="268.122" filterUnits="userSpaceOnUse" color-interpolation-filters="sRGB">
<feFlood flood-opacity="0" result="BackgroundImageFix"/>
<feColorMatrix in="SourceAlpha" type="matrix" values="0 0 0 0 0 0 0 0 0 0 0 0 0 0 0 0 0 0 127 0"/>
<feOffset dy="15"/>
<feGaussianBlur stdDeviation="15"/>
<feColorMatrix type="matrix" values="0 0 0 0 0 0 0 0 0 0 0 0 0 0 0 0 0 0 0.25 0"/>
<feBlend mode="normal" in2="BackgroundImageFix" result="effect1_dropShadow"/>
<feBlend mode="normal" in="SourceGraphic" in2="effect1_dropShadow" result="shape"/>
</filter>
<linearGradient id="paint0_linear-018785" x1="33.4821" y1="71.3214" x2="426.662" y2="487.908" gradientUnits="userSpaceOnUse">
<stop stop-color="#FF5F8F"/>
<stop offset="1" stop-color="#FF2063"/>
</linearGradient>
<linearGradient id="paint1_linear-370090" x1="286.827" y1="247.369" x2="579.57" y2="403.621" gradientUnits="userSpaceOnUse">
<stop stop-color="#1C2152"/>
<stop offset="1" stop-color="#0C0E2B"/>
</linearGradient>
</defs>
</svg>