<svg width="576" height="576" viewBox="0 0 576 576" fill="none" xmlns="http://www.w3.org/2000/svg">
<circle cx="288" cy="288" r="221.625" fill="#EDF0FC"/>
<circle cx="288" cy="288" r="253.25" stroke="#EDF0FC" stroke-opacity="0.6" stroke-width="2"/>
<circle cx="288" cy="288" r="287" stroke="#EDF0FC" stroke-opacity="0.3" stroke-width="2"/>
<g filter="url(#filter0_d-988495)">
<rect x="84" y="73" width="193" height="193" rx="20" fill="url(#paint0_linear-507828)"/>
</g>
<rect x="101" y="90" width="176" height="176" rx="20" fill="url(#paint1_linear-398503)"/>
<g filter="url(#filter1_d-932595)">
<rect x="304" y="73" width="193" height="193" rx="20" fill="url(#paint2_linear-230746)"/>
</g>
<rect x="321" y="90" width="176" height="176" rx="20" fill="url(#paint3_linear-717010)"/>
<path d="M392.024 159.496L392.312 149.8H391.88L385.4 167.032L378.92 149.8H378.488L378.776 159.496V175H373.304V141.496H380.792L385.448 153.832H385.784L390.488 141.496H397.496V175H392.024V159.496ZM414.181 175.576C412.005 175.576 410.117 175.192 408.517 174.424C406.917 173.624 405.589 172.488 404.533 171.016C403.509 169.544 402.741 167.736 402.229 165.592C401.749 163.448 401.509 161 401.509 158.248C401.509 155.528 401.749 153.096 402.229 150.952C402.741 148.776 403.509 146.952 404.533 145.48C405.589 144.008 406.917 142.888 408.517 142.12C410.117 141.32 412.005 140.92 414.181 140.92C418.533 140.92 421.733 142.44 423.781 145.48C425.829 148.52 426.853 152.776 426.853 158.248C426.853 163.72 425.829 167.976 423.781 171.016C421.733 174.056 418.533 175.576 414.181 175.576ZM414.181 170.44C415.301 170.44 416.245 170.232 417.013 169.816C417.781 169.368 418.389 168.744 418.837 167.944C419.317 167.144 419.653 166.168 419.845 165.016C420.069 163.832 420.181 162.52 420.181 161.08V155.368C420.181 152.488 419.733 150.216 418.837 148.552C417.973 146.888 416.421 146.056 414.181 146.056C411.941 146.056 410.373 146.888 409.477 148.552C408.613 150.216 408.181 152.488 408.181 155.368V161.128C408.181 164.008 408.613 166.28 409.477 167.944C410.373 169.608 411.941 170.44 414.181 170.44ZM381.128 202H374.84V168.496H387.56C390.824 168.496 393.32 169.424 395.048 171.28C396.776 173.136 397.64 175.664 397.64 178.864C397.64 181.328 397.064 183.408 395.912 185.104C394.792 186.768 393.176 187.824 391.064 188.272L398.216 202H391.304L384.92 188.992H381.128V202ZM386.264 184.096C387.96 184.096 389.176 183.76 389.912 183.088C390.648 182.384 391.016 181.28 391.016 179.776V177.952C391.016 176.448 390.648 175.36 389.912 174.688C389.176 173.984 387.96 173.632 386.264 173.632H381.128V184.096H386.264ZM403.765 202V168.496H424.933V173.68H410.053V182.416H424.405V187.6H410.053V196.816H424.933V202H403.765Z" fill="white"/>
<g filter="url(#filter2_d-791933)">
<rect x="84" y="299" width="193" height="193" rx="20" fill="url(#paint4_linear-191686)"/>
</g>
<rect x="101" y="316" width="176" height="176" rx="20" fill="url(#paint5_linear-591771)"/>
<g clip-path="url(#clip0-844705)">
<path d="M208.998 380.954C208.064 380.632 207.097 380.328 206.101 380.041C206.265 379.372 206.415 378.713 206.548 378.065C208.742 367.419 207.308 358.843 202.411 356.019C197.716 353.311 190.038 356.135 182.283 362.883C181.537 363.532 180.789 364.219 180.042 364.94C179.544 364.463 179.046 364.003 178.55 363.562C170.423 356.346 162.277 353.305 157.385 356.137C152.694 358.852 151.305 366.915 153.279 377.004C153.47 377.978 153.693 378.973 153.945 379.985C152.792 380.312 151.679 380.661 150.614 381.032C141.085 384.354 135 389.561 135 394.961C135 400.539 141.533 406.134 151.457 409.526C152.24 409.793 153.053 410.047 153.891 410.287C153.619 411.381 153.382 412.454 153.184 413.499C151.302 423.413 152.771 431.285 157.45 433.984C162.282 436.77 170.391 433.906 178.288 427.003C178.912 426.458 179.538 425.879 180.166 425.272C180.979 426.056 181.791 426.797 182.599 427.492C190.248 434.074 197.802 436.732 202.476 434.026C207.303 431.232 208.872 422.775 206.836 412.487C206.68 411.701 206.499 410.898 206.296 410.081C206.865 409.913 207.424 409.739 207.969 409.558C218.287 406.14 225 400.614 225 394.961C225 389.541 218.718 384.3 208.998 380.954ZM206.76 405.909C206.268 406.072 205.763 406.229 205.249 406.382C204.11 402.776 202.572 398.942 200.691 394.98C202.486 391.113 203.964 387.328 205.071 383.745C205.992 384.011 206.886 384.292 207.747 384.589C216.075 387.456 221.155 391.695 221.155 394.961C221.155 398.441 215.669 402.957 206.76 405.909ZM203.064 413.234C203.964 417.783 204.093 421.896 203.497 425.112C202.96 428.001 201.883 429.928 200.55 430.699C197.713 432.341 191.648 430.207 185.106 424.578C184.357 423.932 183.601 423.243 182.844 422.514C185.379 419.741 187.914 416.516 190.388 412.935C194.738 412.549 198.849 411.918 202.577 411.056C202.76 411.797 202.923 412.523 203.064 413.234ZM165.683 430.415C162.912 431.394 160.705 431.422 159.371 430.653C156.532 429.015 155.352 422.695 156.961 414.216C157.146 413.246 157.365 412.248 157.618 411.229C161.305 412.044 165.386 412.631 169.747 412.984C172.237 416.488 174.845 419.709 177.473 422.529C176.899 423.083 176.327 423.611 175.758 424.108C172.266 427.161 168.767 429.326 165.683 430.415ZM152.701 405.888C148.312 404.388 144.688 402.438 142.204 400.311C139.972 398.399 138.845 396.501 138.845 394.961C138.845 391.684 143.731 387.504 151.879 384.663C152.868 384.318 153.903 383.993 154.977 383.688C156.103 387.352 157.581 391.182 159.364 395.055C157.558 398.986 156.059 402.877 154.922 406.583C154.156 406.363 153.415 406.131 152.701 405.888ZM157.052 376.265C155.361 367.621 156.484 361.101 159.311 359.464C162.322 357.721 168.98 360.206 175.997 366.437C176.446 366.836 176.896 367.252 177.348 367.684C174.733 370.492 172.149 373.688 169.681 377.171C165.448 377.564 161.396 378.194 157.671 379.038C157.437 378.096 157.23 377.17 157.052 376.265ZM195.874 385.851C194.984 384.313 194.07 382.811 193.138 381.35C196.009 381.713 198.76 382.195 201.344 382.785C200.568 385.271 199.602 387.87 198.464 390.535C197.647 388.985 196.784 387.422 195.874 385.851ZM180.043 370.431C181.816 372.353 183.592 374.498 185.339 376.825C183.579 376.742 181.797 376.699 180 376.699C178.22 376.699 176.451 376.741 174.702 376.823C176.45 374.517 178.242 372.375 180.043 370.431ZM164.11 385.878C163.22 387.421 162.373 388.975 161.569 390.532C160.45 387.877 159.492 385.266 158.71 382.744C161.277 382.17 164.016 381.7 166.869 381.344C165.924 382.818 165.002 384.331 164.11 385.878V385.878ZM166.951 408.853C164.003 408.524 161.224 408.079 158.657 407.52C159.451 404.954 160.43 402.287 161.574 399.574C162.379 401.131 163.23 402.685 164.125 404.231H164.125C165.037 405.806 165.982 407.349 166.951 408.853ZM180.149 419.762C178.327 417.796 176.509 415.621 174.734 413.282C176.458 413.35 178.214 413.384 180 413.384C181.834 413.384 183.648 413.343 185.433 413.263C183.68 415.645 181.911 417.823 180.149 419.762ZM198.5 399.436C199.703 402.178 200.717 404.831 201.522 407.353C198.913 407.949 196.095 408.428 193.127 408.784C194.061 407.304 194.984 405.776 195.89 404.205C196.807 402.615 197.677 401.023 198.5 399.436ZM192.559 402.284C191.153 404.723 189.708 407.052 188.242 409.25C185.571 409.441 182.812 409.539 180 409.539C177.199 409.539 174.475 409.453 171.851 409.282C170.326 407.055 168.85 404.72 167.452 402.305H167.453C166.059 399.897 164.775 397.469 163.613 395.054C164.775 392.633 166.055 390.202 167.441 387.798L167.441 387.799C168.831 385.389 170.293 383.064 171.805 380.851C174.481 380.649 177.226 380.544 180 380.544H180C182.786 380.544 185.535 380.65 188.21 380.854C189.699 383.051 191.151 385.367 192.547 387.778C193.958 390.216 195.254 392.631 196.427 394.999C195.258 397.408 193.964 399.848 192.559 402.284ZM200.491 359.35C203.505 361.088 204.677 368.097 202.783 377.289C202.662 377.875 202.526 378.472 202.378 379.078C198.645 378.216 194.59 377.575 190.345 377.177C187.872 373.655 185.309 370.454 182.737 367.682C183.428 367.017 184.119 366.382 184.807 365.784C191.451 360.001 197.661 357.718 200.491 359.35ZM180 386.925C184.438 386.925 188.037 390.523 188.037 394.961C188.037 399.4 184.438 402.998 180 402.998C175.562 402.998 171.963 399.4 171.963 394.961C171.963 390.523 175.562 386.925 180 386.925Z" fill="white"/>
</g>
<g filter="url(#filter3_d-320152)">
<rect x="304" y="299" width="193" height="193" rx="20" fill="url(#paint6_linear-081975)"/>
</g>
<rect x="321" y="316" width="176" height="176" rx="20" fill="url(#paint7_linear-640756)"/>
<g clip-path="url(#clip1-759534)">
<path d="M427 357H445L400 434.33L355 357H372.775H389.425L400 374.932L410.35 357H427Z" fill="white"/>
<path d="M355 357L400 434.33L445 357H427L400 403.398L372.775 357H355Z" fill="white"/>
<path d="M372.775 357L400 403.622L427 357H410.35L400 374.932L389.425 357H372.775Z" fill="#3D416D"/>
</g>
<path d="M225 119L216.801 210.058L179.945 220.187L143.191 210.072L135 119H225Z" fill="white"/>
<path d="M180 212.445L209.781 204.26L216.788 126.447H180V212.445Z" fill="#EBEBEB"/>
<path d="M164.061 148.786H180V137.616H151.748L152.017 140.613L154.786 171.393H180V160.224H165.091L164.061 148.786Z" fill="#EF2763"/>
<path d="M166.6 176.978H155.29L156.868 194.516L179.948 200.868L180 200.854V189.232L179.951 189.246L167.402 185.887L166.6 176.978Z" fill="#EF2763"/>
<path d="M179.961 171.393H193.835L192.527 185.879L179.961 189.242V200.862L203.059 194.516L203.229 192.629L205.876 163.223L206.151 160.224H179.961V171.393Z" fill="#FF2063"/>
<path d="M179.961 148.759V148.786H207.176L207.402 146.275L207.916 140.613L208.185 137.616H179.961V148.759Z" fill="#FF2063"/>
<defs>
<filter id="filter0_d-988495" x="54" y="58" width="253" height="253" filterUnits="userSpaceOnUse" color-interpolation-filters="sRGB">
<feFlood flood-opacity="0" result="BackgroundImageFix"/>
<feColorMatrix in="SourceAlpha" type="matrix" values="0 0 0 0 0 0 0 0 0 0 0 0 0 0 0 0 0 0 127 0"/>
<feOffset dy="15"/>
<feGaussianBlur stdDeviation="15"/>
<feColorMatrix type="matrix" values="0 0 0 0 0 0 0 0 0 0 0 0 0 0 0 0 0 0 0.1 0"/>
<feBlend mode="normal" in2="BackgroundImageFix" result="effect1_dropShadow"/>
<feBlend mode="normal" in="SourceGraphic" in2="effect1_dropShadow" result="shape"/>
</filter>
<filter id="filter1_d-932595" x="274" y="58" width="253" height="253" filterUnits="userSpaceOnUse" color-interpolation-filters="sRGB">
<feFlood flood-opacity="0" result="BackgroundImageFix"/>
<feColorMatrix in="SourceAlpha" type="matrix" values="0 0 0 0 0 0 0 0 0 0 0 0 0 0 0 0 0 0 127 0"/>
<feOffset dy="15"/>
<feGaussianBlur stdDeviation="15"/>
<feColorMatrix type="matrix" values="0 0 0 0 0 0 0 0 0 0 0 0 0 0 0 0 0 0 0.1 0"/>
<feBlend mode="normal" in2="BackgroundImageFix" result="effect1_dropShadow"/>
<feBlend mode="normal" in="SourceGraphic" in2="effect1_dropShadow" result="shape"/>
</filter>
<filter id="filter2_d-791933" x="54" y="284" width="253" height="253" filterUnits="userSpaceOnUse" color-interpolation-filters="sRGB">
<feFlood flood-opacity="0" result="BackgroundImageFix"/>
<feColorMatrix in="SourceAlpha" type="matrix" values="0 0 0 0 0 0 0 0 0 0 0 0 0 0 0 0 0 0 127 0"/>
<feOffset dy="15"/>
<feGaussianBlur stdDeviation="15"/>
<feColorMatrix type="matrix" values="0 0 0 0 0 0 0 0 0 0 0 0 0 0 0 0 0 0 0.1 0"/>
<feBlend mode="normal" in2="BackgroundImageFix" result="effect1_dropShadow"/>
<feBlend mode="normal" in="SourceGraphic" in2="effect1_dropShadow" result="shape"/>
</filter>
<filter id="filter3_d-320152" x="274" y="284" width="253" height="253" filterUnits="userSpaceOnUse" color-interpolation-filters="sRGB">
<feFlood flood-opacity="0" result="BackgroundImageFix"/>
<feColorMatrix in="SourceAlpha" type="matrix" values="0 0 0 0 0 0 0 0 0 0 0 0 0 0 0 0 0 0 127 0"/>
<feOffset dy="15"/>
<feGaussianBlur stdDeviation="15"/>
<feColorMatrix type="matrix" values="0 0 0 0 0 0 0 0 0 0 0 0 0 0 0 0 0 0 0.1 0"/>
<feBlend mode="normal" in2="BackgroundImageFix" result="effect1_dropShadow"/>
<feBlend mode="normal" in="SourceGraphic" in2="effect1_dropShadow" result="shape"/>
</filter>
<linearGradient id="paint0_linear-507828" x1="72.5119" y1="86.7857" x2="277" y2="266" gradientUnits="userSpaceOnUse">
<stop stop-color="#FF5F8F"/>
<stop offset="1" stop-color="#FF2063"/>
</linearGradient>
<linearGradient id="paint1_linear-398503" x1="90.5238" y1="102.571" x2="277" y2="266" gradientUnits="userSpaceOnUse">
<stop stop-color="#FEA4BF"/>
<stop offset="1" stop-color="#FF2063"/>
</linearGradient>
<linearGradient id="paint2_linear-230746" x1="303.196" y1="74.2672" x2="526.227" y2="162.439" gradientUnits="userSpaceOnUse">
<stop stop-color="#1C2152"/>
<stop offset="1" stop-color="#0C0E2B"/>
</linearGradient>
<linearGradient id="paint3_linear-717010" x1="320.267" y1="91.1556" x2="523.652" y2="171.561" gradientUnits="userSpaceOnUse">
<stop stop-color="#3B407B"/>
<stop offset="1" stop-color="#0C0E2B"/>
</linearGradient>
<linearGradient id="paint4_linear-191686" x1="72.5119" y1="312.786" x2="277" y2="492" gradientUnits="userSpaceOnUse">
<stop stop-color="#5E81FF"/>
<stop offset="1" stop-color="#2753F0"/>
</linearGradient>
<linearGradient id="paint5_linear-591771" x1="90.5238" y1="328.571" x2="277" y2="492" gradientUnits="userSpaceOnUse">
<stop stop-color="#9AB0FF"/>
<stop offset="1" stop-color="#2753F0"/>
</linearGradient>
<linearGradient id="paint6_linear-081975" x1="292.512" y1="312.786" x2="497" y2="492" gradientUnits="userSpaceOnUse">
<stop stop-color="#70FFC3"/>
<stop offset="1" stop-color="#27F09C"/>
</linearGradient>
<linearGradient id="paint7_linear-640756" x1="310.524" y1="328.571" x2="497" y2="492" gradientUnits="userSpaceOnUse">
<stop stop-color="#BAFFE2"/>
<stop offset="1" stop-color="#27F09C"/>
</linearGradient>
<clipPath id="clip0-844705">
<rect width="90" height="80.1562" fill="white" transform="translate(135 355)"/>
</clipPath>
<clipPath id="clip1-759534">
<rect width="90" height="77.4" fill="white" transform="translate(355 357)"/>
</clipPath>
</defs>
</svg>