<svg width="32" height="32" viewBox="0 0 32 32" fill="none" xmlns="http://www.w3.org/2000/svg" viewBox="0 0 32 32">
<path d="M24.9893 10.4249C24.9963 10.451 25 10.4779 25 10.5049V14.7033C25 14.813 24.9413 14.9143 24.8462 14.9688L21.3224 16.9976V21.0189C21.3224 21.1283 21.2642 21.2293 21.1693 21.2844L13.8137 25.5188C13.7968 25.5284 13.7785 25.5345 13.7601 25.541C13.7532 25.5433 13.7467 25.5475 13.7394 25.5494C13.688 25.563 13.634 25.563 13.5826 25.5494C13.5741 25.5471 13.5665 25.5425 13.5584 25.5395C13.5416 25.5334 13.524 25.528 13.5079 25.5188L6.15382 21.2844C6.05873 21.2298 6 21.1285 6 21.0189V8.42364C6 8.39609 6.00383 8.36931 6.01071 8.34329C6.01301 8.33449 6.01837 8.32645 6.02143 8.31765C6.02717 8.30158 6.03253 8.28512 6.04094 8.2702C6.04668 8.26025 6.0551 8.25222 6.06199 8.24303C6.07079 8.23079 6.07883 8.21816 6.08916 8.20745C6.09796 8.19865 6.10944 8.19214 6.11939 8.18449C6.13048 8.1753 6.14043 8.16536 6.15306 8.15808H6.15344L9.83069 6.04089C9.92544 5.98637 10.0421 5.98637 10.1368 6.04089L13.8141 8.15808H13.8148C13.8271 8.16574 13.8374 8.1753 13.8485 8.1841C13.8584 8.19176 13.8695 8.19865 13.8783 8.20706C13.8891 8.21816 13.8967 8.23079 13.9059 8.24303C13.9124 8.25222 13.9212 8.26025 13.9266 8.2702C13.9354 8.28551 13.9403 8.30158 13.9464 8.31765C13.9495 8.32645 13.9549 8.33449 13.9572 8.34367C13.9642 8.36975 13.9678 8.39663 13.9679 8.42364V16.2905L17.0321 14.5261V10.5045C17.0321 10.4777 17.0359 10.4505 17.0428 10.4249C17.0455 10.4157 17.0505 10.4077 17.0536 10.3989C17.0597 10.3828 17.065 10.3663 17.0734 10.3514C17.0792 10.3415 17.0876 10.3334 17.0941 10.3243C17.1033 10.312 17.1109 10.2994 17.1217 10.2887C17.1305 10.2799 17.1416 10.2734 17.1515 10.2657C17.163 10.2565 17.1729 10.2466 17.1852 10.2393H17.1856L20.8632 8.12212C20.9579 8.06751 21.0746 8.06751 21.1693 8.12212L24.8466 10.2393C24.8596 10.247 24.8695 10.2565 24.881 10.2653C24.8906 10.273 24.9017 10.2799 24.9105 10.2883C24.9212 10.2994 24.9288 10.312 24.938 10.3243C24.9449 10.3334 24.9533 10.3415 24.9587 10.3514C24.9675 10.3663 24.9724 10.3828 24.9786 10.3989C24.982 10.4077 24.987 10.4157 24.9893 10.4249ZM24.387 14.5261V11.0348L23.1002 11.7756L21.3224 12.7992V16.2905L24.3874 14.5261H24.387ZM20.7098 20.8417V17.3481L18.9611 18.3469L13.9675 21.1968V24.7233L20.7098 20.8417ZM6.613 8.95361V20.8417L13.3545 24.7229V21.1972L9.8326 19.204L9.83145 19.2032L9.82992 19.2025C9.81806 19.1956 9.80811 19.1856 9.79702 19.1772C9.78745 19.1695 9.77635 19.1634 9.76793 19.155L9.76717 19.1539C9.75722 19.1443 9.75033 19.1324 9.74191 19.1217C9.73426 19.1114 9.72508 19.1026 9.71896 19.0919L9.71857 19.0907C9.71168 19.0792 9.70748 19.0655 9.7025 19.0525C9.69753 19.041 9.69102 19.0303 9.68796 19.018V19.0176C9.68413 19.0031 9.68337 18.9878 9.68184 18.9729C9.68031 18.9614 9.67725 18.9499 9.67725 18.9384V18.9377V10.718L7.89985 9.69403L6.613 8.95399V8.95361ZM9.98413 6.66002L6.92027 8.42364L9.98336 10.1873L13.0468 8.42326L9.98336 6.66002H9.98413ZM11.5775 17.6665L13.3549 16.6433V8.95361L12.068 9.69442L10.2902 10.718V18.4077L11.5775 17.6665ZM21.0163 8.74124L17.9528 10.5049L21.0163 12.2685L24.0793 10.5045L21.0163 8.74124ZM20.7098 12.7992L18.932 11.7756L17.6451 11.0348V14.5261L19.4225 15.5493L20.7098 16.2905V12.7992ZM13.6606 20.6668L18.154 18.1016L20.4002 16.8197L17.339 15.0572L13.8144 17.0864L10.6021 18.9357L13.6606 20.6668Z" fill="#EE635A"/>
</svg>
