<svg width="32" height="32" viewBox="0 0 32 32" fill="none" xmlns="http://www.w3.org/2000/svg" viewBox="0 0 32 32">
<path d="M15.5 10C12.9667 10 11.3833 11.2667 10.75 13.8C11.7 12.5333 12.8083 12.0583 14.075 12.375C14.7977 12.5557 15.3143 13.08 15.886 13.6604C16.8174 14.6058 17.8954 15.7 20.25 15.7C22.7833 15.7 24.3667 14.4333 25 11.9C24.05 13.1667 22.9417 13.6417 21.675 13.325C20.9523 13.1443 20.4357 12.62 19.864 12.0396C18.9326 11.0942 17.8546 10 15.5 10ZM10.75 15.7C8.21667 15.7 6.63333 16.9667 6 19.5C6.95 18.2333 8.05833 17.7583 9.325 18.075C10.0477 18.2557 10.5643 18.78 11.136 19.3603C12.0674 20.3058 13.1454 21.4 15.5 21.4C18.0333 21.4 19.6167 20.1333 20.25 17.6C19.3 18.8667 18.1917 19.3417 16.925 19.025C16.2023 18.8443 15.6857 18.32 15.114 17.7397C14.1826 16.7942 13.1046 15.7 10.75 15.7Z" fill="#2298BD"/>
</svg>
